<svg width="900" height="178" viewBox="0 0 900 178" fill="none" xmlns="http://www.w3.org/2000/svg">
<path d="M79.6133 0H178.259V9.88521H133.879V59.1872H123.993V9.88521H79.6133V0Z" fill="#162241"/>
<path d="M194.417 0H203.227L255.3 59.1872H242.147L233.461 49.3433H164.182L155.496 59.1872H142.344L194.417 0ZM198.801 9.92657L172.827 39.4581H224.817L198.801 9.92657Z" fill="#162241"/>
<path d="M219.385 0H318.03V9.88521H273.65V59.1872H263.765V9.88521H219.385V0Z" fill="#162241"/>
<path d="M2.48164 59.1872V49.3433H81.3565C83.397 49.3433 85.1479 48.6126 86.6094 47.1512C88.0432 45.7174 88.7601 43.9802 88.7601 41.9398C88.7601 39.8993 88.0432 38.1484 86.6094 36.687C85.1479 35.2531 83.397 34.5362 81.3565 34.5362H17.2474C12.5047 34.5362 8.43759 32.8404 5.04601 29.4488C1.682 26.0848 0 22.0177 0 17.2474C0 12.5047 1.682 8.45137 5.04601 5.08737C8.43759 1.69579 12.5047 0 17.2474 0H96.1637V9.88521H17.2474C15.207 9.88521 13.4698 10.6021 12.036 12.036C10.5746 13.4974 9.84385 15.2345 9.84385 17.2474C9.84385 19.2879 10.5746 21.0388 12.036 22.5002C13.4698 23.9341 15.207 24.651 17.2474 24.651H81.3565C86.1268 24.651 90.194 26.3468 93.558 29.7384C96.9495 33.1024 98.6453 37.1695 98.6453 41.9398C98.6453 46.6825 96.9495 50.7496 93.558 54.1412C90.194 57.5052 86.1268 59.1872 81.3565 59.1872H2.48164Z" fill="#162241"/>
<path d="M297.49 24.651H396.135V34.5362H307.333V49.3433H396.135V59.1872H297.49V24.651ZM297.49 0H396.135V9.88521H297.49V0Z" fill="#162241"/>
<path fill-rule="evenodd" clip-rule="evenodd" d="M540.116 49.3433V59.1872H591.9C596.67 59.1872 600.737 57.5052 604.101 54.1412C607.465 50.7496 609.147 46.6825 609.147 41.9398V0H599.303V41.9398C599.303 43.9802 598.573 45.7174 597.111 47.1512C595.678 48.6126 593.94 49.3433 591.9 49.3433H540.116ZM664.557 0H673.367L725.44 59.1872H712.287L703.601 49.3433H634.322L625.636 59.1872H612.484L664.557 0ZM668.941 9.92657L642.966 39.4581H694.957L668.941 9.92657ZM799.641 0H812.587L762.499 59.1872H749.594L699.507 0H712.411L756.047 51.5355L799.641 0ZM847.495 0H838.685L786.612 59.1872H799.765L843.07 9.92657L886.416 59.1872H899.568L847.495 0Z" fill="url(#paint0_linear_3382_1639)"/>
<path fill-rule="evenodd" clip-rule="evenodd" d="M540.116 49.3433V59.1872H591.9C596.67 59.1872 600.737 57.5052 604.101 54.1412C607.465 50.7496 609.147 46.6825 609.147 41.9398V0H599.303V41.9398C599.303 43.9802 598.573 45.7174 597.111 47.1512C595.678 48.6126 593.94 49.3433 591.9 49.3433H540.116ZM664.557 0H673.367L725.44 59.1872H712.287L703.601 49.3433H634.322L625.636 59.1872H612.484L664.557 0ZM668.941 9.92657L642.966 39.4581H694.957L668.941 9.92657ZM799.641 0H812.587L762.499 59.1872H749.594L699.507 0H712.411L756.047 51.5355L799.641 0ZM847.495 0H838.685L786.612 59.1872H799.765L843.07 9.92657L886.416 59.1872H899.568L847.495 0Z" fill="url(#paint1_linear_3382_1639)"/>
<path d="M452.844 12.3884H465.211C470.915 12.3884 475.602 17.0755 475.602 22.7791V35.9369C475.602 41.6405 470.915 46.3276 465.211 46.3276H452.844H442.848C437.145 46.3276 432.514 41.6405 432.514 35.9369V22.7791C432.514 17.0755 437.145 12.3884 442.848 12.3884H452.844ZM439.799 35.9369C439.799 37.631 441.154 38.9864 442.848 38.9864H452.844H465.211C466.905 38.9864 468.317 37.631 468.317 35.9369V22.7791C468.317 21.085 466.905 19.7297 465.211 19.7297H452.844H442.848C441.154 19.7297 439.799 21.085 439.799 22.7791V35.9369Z" fill="#162241"/>
<path d="M494.119 38.9864V46.2711H486.835V38.9864V33.0004V25.7156V19.7297V12.3884H494.119H524.444V19.7297H494.119V25.7156H524.444V33.0004H494.119V38.9864Z" fill="#162241"/>
<path d="M179.845 109V105.647H206.713C207.408 105.647 208.004 105.398 208.502 104.9C208.99 104.412 209.235 103.82 209.235 103.125C209.235 102.43 208.99 101.833 208.502 101.336C208.004 100.847 207.408 100.603 206.713 100.603H184.875C183.26 100.603 181.874 100.025 180.719 98.8701C179.573 97.7242 179 96.3388 179 94.7139C179 93.0984 179.573 91.7177 180.719 90.5718C181.874 89.4165 183.26 88.8389 184.875 88.8389H211.757V92.2061H184.875C184.18 92.2061 183.588 92.4503 183.1 92.9387C182.602 93.4365 182.353 94.0283 182.353 94.7139C182.353 95.409 182.602 96.0054 183.1 96.5032C183.588 96.9916 184.18 97.2358 184.875 97.2358H206.713C208.338 97.2358 209.723 97.8135 210.869 98.9687C212.024 100.115 212.602 101.5 212.602 103.125C212.602 104.74 212.024 106.126 210.869 107.281C209.723 108.427 208.338 109 206.713 109H179.845Z" fill="#162241"/>
<path d="M223.92 109C222.304 109 220.919 108.427 219.764 107.281C218.618 106.126 218.045 104.74 218.045 103.125V88.8389H221.398V103.125C221.398 103.82 221.647 104.412 222.145 104.9C222.633 105.398 223.225 105.647 223.92 105.647H245.758C246.453 105.647 247.049 105.398 247.547 104.9C248.035 104.412 248.279 103.82 248.279 103.125V88.8389H251.647V103.125C251.647 104.74 251.069 106.126 249.914 107.281C248.768 108.427 247.382 109 245.758 109H223.92Z" fill="#162241"/>
<path d="M289.804 97.8275C289.222 98.748 288.447 99.4572 287.479 99.955C289.621 101.956 290.692 104.412 290.692 107.323V109H287.324V107.323C287.324 105.473 286.667 103.89 285.352 102.575C284.046 101.261 282.464 100.603 280.604 100.603H260.443V109H257.09V97.2358H284.802C285.497 97.2358 286.094 96.9916 286.592 96.5032C287.08 96.0054 287.324 95.409 287.324 94.7139C287.324 94.0283 287.08 93.4365 286.592 92.9387C286.094 92.4503 285.497 92.2061 284.802 92.2061H257.09V88.8389H284.802C286.427 88.8389 287.813 89.4165 288.959 90.5718C290.114 91.7177 290.692 93.0984 290.692 94.7139C290.692 95.841 290.396 96.8789 289.804 97.8275Z" fill="#162241"/>
<path d="M330.244 88.8389H334.653L317.592 109H313.196L296.135 88.8389H300.53L315.394 106.394L330.244 88.8389Z" fill="#162241"/>
<path d="M340.082 97.2358H373.684V100.603H343.435V105.647H373.684V109H340.082V97.2358ZM340.082 88.8389H373.684V92.2061H340.082V88.8389Z" fill="#162241"/>
<path d="M408.249 88.8389H413.842L398.161 100.603V109H394.808V100.603L379.127 88.8389H384.72L396.485 97.6585L408.249 88.8389Z" fill="#162241"/>
<path d="M462.871 103.125V100.603H441.865C441.17 100.603 440.578 100.847 440.09 101.336C439.592 101.833 439.343 102.43 439.343 103.125C439.343 103.82 439.592 104.412 440.09 104.9C440.578 105.398 441.17 105.647 441.865 105.647H460.349C461.044 105.647 461.636 105.398 462.125 104.9C462.622 104.412 462.871 103.82 462.871 103.125ZM466.224 97.2358H468.746V100.603H466.224V103.125C466.224 104.74 465.651 106.126 464.506 107.281C463.35 108.427 461.965 109 460.349 109H441.865C440.249 109 438.864 108.427 437.709 107.281C436.563 106.126 435.99 104.74 435.99 103.125C435.99 101.481 436.581 100.082 437.765 98.9265C436.581 97.7712 435.99 96.367 435.99 94.7139C435.99 93.0984 436.563 91.7177 437.709 90.5718C438.864 89.4165 440.249 88.8389 441.865 88.8389H464.548V92.2061H441.865C441.17 92.2061 440.578 92.4503 440.09 92.9387C439.592 93.4365 439.343 94.0283 439.343 94.7139C439.343 95.409 439.592 96.0054 440.09 96.5032C440.578 96.9916 441.17 97.2358 441.865 97.2358H462.871V94.7139H466.224V97.2358Z" fill="#162241"/>
<path d="M523.622 97.8275C523.04 98.748 522.265 99.4572 521.298 99.955C523.439 101.956 524.51 104.412 524.51 107.323V109H521.143V107.323C521.143 105.473 520.485 103.89 519.17 102.575C517.865 101.261 516.282 100.603 514.422 100.603H494.261V109H490.908V97.2358H518.621C519.316 97.2358 519.912 96.9916 520.41 96.5032C520.898 96.0054 521.143 95.409 521.143 94.7139C521.143 94.0283 520.898 93.4365 520.41 92.9387C519.912 92.4503 519.316 92.2061 518.621 92.2061H490.908V88.8389H518.621C520.246 88.8389 521.631 89.4165 522.777 90.5718C523.932 91.7177 524.51 93.0984 524.51 94.7139C524.51 95.841 524.214 96.8789 523.622 97.8275Z" fill="#162241"/>
<path d="M529.953 97.2358H563.555V100.603H533.306V105.647H563.555V109H529.953V97.2358ZM529.953 88.8389H563.555V92.2061H529.953V88.8389Z" fill="#162241"/>
<path d="M568.998 88.8389H596.71C598.335 88.8389 599.721 89.4165 600.867 90.5718C602.022 91.7177 602.6 93.0984 602.6 94.7139C602.6 96.3388 602.022 97.7242 600.867 98.8701C599.721 100.025 598.335 100.603 596.71 100.603H572.351V109H568.998V97.2358H596.71C597.405 97.2358 598.002 96.9916 598.5 96.5032C598.988 96.0054 599.232 95.409 599.232 94.7139C599.232 94.0283 598.988 93.4365 598.5 92.9387C598.002 92.4503 597.405 92.2061 596.71 92.2061H568.998V88.8389Z" fill="#162241"/>
<path d="M613.918 92.2061C613.223 92.2061 612.631 92.4503 612.142 92.9387C611.645 93.4365 611.396 94.0283 611.396 94.7139V103.125C611.396 103.82 611.645 104.412 612.142 104.9C612.631 105.398 613.223 105.647 613.918 105.647H635.755C636.45 105.647 637.047 105.398 637.545 104.9C638.033 104.412 638.277 103.82 638.277 103.125V94.7139C638.277 94.0283 638.033 93.4365 637.545 92.9387C637.047 92.4503 636.45 92.2061 635.755 92.2061H613.918ZM613.918 109C612.302 109 610.917 108.427 609.761 107.281C608.616 106.126 608.043 104.74 608.043 103.125V94.7139C608.043 93.0984 608.616 91.7177 609.761 90.5718C610.917 89.4165 612.302 88.8389 613.918 88.8389H635.755C637.38 88.8389 638.766 89.4165 639.911 90.5718C641.067 91.7177 641.644 93.0984 641.644 94.7139V103.125C641.644 104.74 641.067 106.126 639.911 107.281C638.766 108.427 637.38 109 635.755 109H613.918Z" fill="#162241"/>
<path d="M679.802 97.8275C679.219 98.748 678.444 99.4572 677.477 99.955C679.619 101.956 680.689 104.412 680.689 107.323V109H677.322V107.323C677.322 105.473 676.665 103.89 675.35 102.575C674.044 101.261 672.461 100.603 670.602 100.603H650.441V109H647.087V97.2358H674.8C675.495 97.2358 676.092 96.9916 676.589 96.5032C677.078 96.0054 677.322 95.409 677.322 94.7139C677.322 94.0283 677.078 93.4365 676.589 92.9387C676.092 92.4503 675.495 92.2061 674.8 92.2061H647.087V88.8389H674.8C676.425 88.8389 677.81 89.4165 678.956 90.5718C680.112 91.7177 680.689 93.0984 680.689 94.7139C680.689 95.841 680.393 96.8789 679.802 97.8275Z" fill="#162241"/>
<path d="M686.132 88.8389H719.734V92.2061H704.617V109H701.25V92.2061H686.132V88.8389Z" fill="#162241"/>
<path fill-rule="evenodd" clip-rule="evenodd" d="M475.962 136.462H424.038C413.524 136.462 405 144.985 405 155.5C405 166.015 413.524 174.538 424.038 174.538H475.962C486.476 174.538 495 166.015 495 155.5C495 144.985 486.476 136.462 475.962 136.462ZM424.038 133C411.612 133 401.538 143.074 401.538 155.5C401.538 167.926 411.612 178 424.038 178H475.962C488.388 178 498.462 167.926 498.462 155.5C498.462 143.074 488.388 133 475.962 133H424.038Z" fill="url(#paint2_linear_3382_1639)"/>
<path d="M475.057 158.995C475.057 159.892 474.908 160.681 474.609 161.363C474.326 162.044 473.936 162.625 473.437 163.107C472.939 163.572 472.349 163.921 471.668 164.154C471.003 164.403 470.28 164.528 469.5 164.528C468.054 164.528 466.816 164.162 465.786 163.431C464.756 162.683 464.075 161.554 463.742 160.042L467.256 159.144C467.389 159.726 467.622 160.199 467.954 160.565C468.287 160.931 468.744 161.113 469.325 161.113C469.641 161.113 469.915 161.047 470.148 160.914C470.38 160.781 470.571 160.607 470.721 160.391C470.887 160.175 471.003 159.934 471.07 159.668C471.153 159.385 471.194 159.103 471.194 158.82C471.194 158.056 470.97 157.491 470.521 157.126C470.089 156.76 469.508 156.577 468.777 156.577H467.88V153.636H468.876C469.541 153.636 470.048 153.445 470.397 153.063C470.762 152.664 470.945 152.116 470.945 151.418C470.945 150.97 470.812 150.546 470.546 150.147C470.297 149.748 469.89 149.549 469.325 149.549C468.843 149.549 468.469 149.707 468.204 150.023C467.938 150.338 467.738 150.737 467.605 151.219L464.191 150.371C464.39 149.607 464.673 148.959 465.038 148.427C465.42 147.896 465.844 147.464 466.309 147.131C466.791 146.783 467.315 146.533 467.88 146.384C468.444 146.218 469.018 146.135 469.599 146.135C470.247 146.135 470.87 146.234 471.468 146.434C472.083 146.633 472.632 146.932 473.113 147.331C473.595 147.73 473.977 148.228 474.26 148.826C474.559 149.424 474.708 150.122 474.708 150.92C474.708 151.95 474.484 152.822 474.036 153.537C473.604 154.235 473.022 154.7 472.291 154.932V155.007C473.138 155.24 473.811 155.722 474.31 156.453C474.808 157.184 475.057 158.031 475.057 158.995Z" fill="#162241"/>
<path d="M461.838 151.368C461.838 151.95 461.764 152.49 461.614 152.988C461.465 153.487 461.265 153.96 461.016 154.409C460.767 154.858 460.484 155.29 460.169 155.705C459.853 156.12 459.529 156.519 459.197 156.901L455.907 160.715H461.614V164.154H451.171V160.615L456.53 154.459C456.962 153.96 457.302 153.454 457.552 152.939C457.801 152.407 457.926 151.9 457.926 151.418C457.926 150.903 457.801 150.463 457.552 150.097C457.319 149.732 456.945 149.549 456.43 149.549C455.948 149.549 455.55 149.748 455.234 150.147C454.918 150.529 454.727 151.094 454.661 151.842L450.922 151.493C451.122 149.699 451.728 148.361 452.742 147.48C453.772 146.583 455.043 146.135 456.555 146.135C457.369 146.135 458.1 146.259 458.748 146.508C459.396 146.758 459.944 147.107 460.393 147.555C460.858 148.004 461.215 148.552 461.465 149.2C461.714 149.848 461.838 150.571 461.838 151.368Z" fill="#162241"/>
<path d="M449.243 155.331C449.243 156.328 449.159 157.367 448.993 158.447C448.844 159.527 448.553 160.523 448.121 161.437C447.706 162.335 447.116 163.074 446.351 163.655C445.604 164.237 444.632 164.528 443.435 164.528C442.239 164.528 441.259 164.237 440.495 163.655C439.747 163.074 439.157 162.335 438.725 161.437C438.31 160.523 438.027 159.527 437.878 158.447C437.728 157.367 437.653 156.328 437.653 155.331C437.653 154.334 437.728 153.296 437.878 152.216C438.027 151.136 438.31 150.147 438.725 149.25C439.157 148.336 439.747 147.588 440.495 147.007C441.259 146.425 442.239 146.135 443.435 146.135C444.632 146.135 445.604 146.425 446.351 147.007C447.116 147.588 447.706 148.336 448.121 149.25C448.553 150.147 448.844 151.136 448.993 152.216C449.159 153.296 449.243 154.334 449.243 155.331ZM445.255 155.331C445.255 154.75 445.23 154.127 445.18 153.462C445.147 152.797 445.064 152.183 444.931 151.618C444.798 151.053 444.615 150.587 444.383 150.222C444.15 149.84 443.834 149.649 443.435 149.649C443.037 149.649 442.721 149.84 442.488 150.222C442.256 150.587 442.073 151.053 441.94 151.618C441.807 152.183 441.716 152.797 441.666 153.462C441.633 154.127 441.616 154.75 441.616 155.331C441.616 155.929 441.633 156.561 441.666 157.225C441.716 157.89 441.807 158.505 441.94 159.07C442.073 159.618 442.256 160.083 442.488 160.465C442.721 160.831 443.037 161.014 443.435 161.014C443.834 161.014 444.15 160.831 444.383 160.465C444.615 160.083 444.798 159.618 444.931 159.07C445.064 158.505 445.147 157.89 445.18 157.225C445.23 156.561 445.255 155.929 445.255 155.331Z" fill="#162241"/>
<path d="M435.65 151.368C435.65 151.95 435.575 152.49 435.425 152.988C435.276 153.487 435.077 153.96 434.827 154.409C434.578 154.858 434.296 155.29 433.98 155.705C433.664 156.12 433.34 156.519 433.008 156.901L429.718 160.715H435.425V164.154H424.983V160.615L430.341 154.459C430.773 153.96 431.114 153.454 431.363 152.939C431.612 152.407 431.737 151.9 431.737 151.418C431.737 150.903 431.612 150.463 431.363 150.097C431.13 149.732 430.757 149.549 430.241 149.549C429.76 149.549 429.361 149.748 429.045 150.147C428.729 150.529 428.538 151.094 428.472 151.842L424.733 151.493C424.933 149.699 425.539 148.361 426.553 147.48C427.583 146.583 428.854 146.135 430.366 146.135C431.18 146.135 431.911 146.259 432.559 146.508C433.207 146.758 433.756 147.107 434.204 147.555C434.669 148.004 435.027 148.552 435.276 149.2C435.525 149.848 435.65 150.571 435.65 151.368Z" fill="#162241"/>
<defs>
<linearGradient id="paint0_linear_3382_1639" x1="930.628" y1="-0.443429" x2="516.1" y2="59.1871" gradientUnits="userSpaceOnUse">
<stop stop-color="#162241"/>
<stop offset="1" stop-color="#162241" stop-opacity="0"/>
</linearGradient>
<linearGradient id="paint1_linear_3382_1639" x1="899.273" y1="9.01684" x2="582.105" y2="79.0601" gradientUnits="userSpaceOnUse">
<stop stop-color="#74E3BB"/>
<stop offset="1" stop-color="#B495F3"/>
</linearGradient>
<linearGradient id="paint2_linear_3382_1639" x1="401.538" y1="155.154" x2="498.462" y2="155.154" gradientUnits="userSpaceOnUse">
<stop stop-color="#A47FF3"/>
<stop offset="1" stop-color="#66EABE"/>
</linearGradient>
</defs>
</svg>
